<svg width="64" height="124" viewBox="0 0 64 124" fill="none" xmlns="http://www.w3.org/2000/svg">
<path d="M31.6329 123.169L33.155 123.149C34.4741 114.849 38.1396 107.197 43.6372 101.231C49.1348 95.2646 56.2121 91.281 63.8974 89.8127L63.8756 88.1699C55.8885 86.7919 41.4015 100.212 35.7036 94C30.0135 87.7881 34.3899 9.2153 33.2036 0.579638L30.7117 0.57959C29.5572 8.99479 33.1838 87.8915 27.7036 94C22.2234 100.108 7.91205 86.2123 0.149698 87.732L0.171474 89.3748C8.04171 90.7207 15.3178 94.7069 20.9672 100.777C26.6166 106.847 30.3475 114.677 31.6328 123.161L31.6329 123.169Z" fill="#e6e6db"/>
</svg>
