<svg width="129" height="231" viewBox="0 0 129 231" fill="none" xmlns="http://www.w3.org/2000/svg">
<g clip-path="url(#clip0_220_431)">
<path d="M14.3045 7.27165C17.4185 6.68111 20.2734 4.63926 23.4472 4.00868C29.8745 2.72752 37.4229 7.15655 42.6395 3.17793C44.4531 1.79667 47.2981 -0.84573 49.2811 0.27529C49.0021 1.5014 48.3344 2.80259 47.6419 4.1338C46.7899 5.78029 47.4775 7.63698 47.7864 9.28348C48.469 12.9168 50.3274 16.1597 51.6179 19.5528C53.7553 25.1529 55.9376 30.738 58.1648 36.303C61.7471 45.2462 65.5138 54.2544 71.3084 61.9413C74.7911 66.5656 78.1543 70.8044 81.6669 75.3385C85.1795 79.8727 88.2287 84.8222 90.4858 89.9868C95.9864 102.568 105.563 112.302 111.063 124.884C116.021 136.219 122.343 148.415 125.512 160.416C127.032 166.161 129 173.037 129 178.933C129 185.939 126.992 192.675 124.685 199.066C121.93 206.693 114.516 211.432 107.58 215.586C95.7721 222.662 83.3808 229.904 69.6642 230.885C57.7213 231.741 45.9229 227.712 35.2307 222.292C24.7227 216.967 14.6383 209.966 8.35046 199.972C1.15584 188.526 -0.323942 174.013 2.71534 160.826C5.2215 149.936 10.5876 139.837 12.7101 128.867C16.8903 107.278 8.41523 85.8581 9.43165 64.2334C9.62098 60.2448 11.9777 53.904 10.5527 50.541C9.80533 48.7694 7.47356 47.0228 6.44219 45.2712C2.01282 37.7143 2.17225 28.7712 5.43076 20.7889C3.094 16.6802 -5.49072 3.39813 5.35104 5.68521C7.76752 6.19567 10.0644 7.39676 12.5357 7.4318C13.1336 7.4418 13.7215 7.38175 14.2995 7.27165H14.3045Z" fill="#06220E"/>
</g>
<defs>
<clipPath id="clip0_220_431">
<rect width="129" height="231" fill="white"/>
</clipPath>
</defs>
</svg>
