<svg width="19" height="36" viewBox="0 0 19 36" fill="none" xmlns="http://www.w3.org/2000/svg">
<path d="M9.07901 35.3343L9.5162 35.3285C9.8951 32.9444 10.948 30.7464 12.5271 29.0327C14.1062 27.319 16.1391 26.1748 18.3466 25.753L18.3404 25.2811C16.0461 24.8853 11.8849 28.74 10.2483 26.9558C8.61385 25.1715 9.87091 2.60231 9.53016 0.12181L8.81439 0.121796C8.48279 2.53897 9.52447 25.2012 7.95036 26.9558C6.37624 28.7104 2.26545 24.7188 0.0358042 25.1553L0.0420592 25.6272C2.3027 26.0138 4.39268 27.1588 6.0154 28.9023C7.63812 30.6458 8.7098 32.8951 9.07897 35.3319L9.07901 35.3343Z" fill="#CCCCB7"/>
</svg>
