<svg width="243" height="123" viewBox="0 0 243 123" fill="none" xmlns="http://www.w3.org/2000/svg">
<g clip-path="url(#clip0_721_3455)">
<path d="M224.951 104.98C213.3 116.599 197.805 123 181.33 123C170.701 123 160.46 120.33 151.425 115.315C142.37 120.33 132.15 123 121.5 123C110.85 123 100.63 120.33 91.5951 115.315C82.5399 120.33 72.3195 123 61.6698 123C45.1946 123 29.7209 116.599 18.0696 104.98C6.41841 93.361 0 77.9299 0 61.5C0 45.0701 6.41841 29.6187 18.0696 18.0199C29.7209 6.40073 45.215 -2.61038e-06 61.6698 -2.61038e-06C72.3195 -2.61038e-06 82.5399 2.67037 91.5951 7.68495C100.65 2.67037 110.871 -2.61038e-06 121.52 -2.61038e-06C132.17 -2.61038e-06 142.39 2.67037 151.446 7.68495C160.501 2.67037 170.721 -2.61038e-06 181.371 -2.61038e-06C197.846 -2.61038e-06 213.34 6.40073 224.971 18.0199C236.622 29.639 243.041 45.0905 243.041 61.5C243 77.9299 236.602 93.361 224.951 104.98ZM113.773 117.252C111.872 114.112 110.176 109.709 108.745 104.165C108.561 103.431 108.357 102.656 108.193 101.902C107.253 102.962 106.292 104.002 105.29 105C104.677 105.612 104.064 106.183 103.451 106.754C106.537 111.625 110.053 115.193 113.773 117.252ZM107.212 25.6845C105.801 23.911 104.289 22.2191 102.674 20.6087C102.306 20.2418 101.918 19.8749 101.529 19.508C101.407 19.7322 101.305 19.936 101.182 20.1603C95.4584 31.1679 92.2901 45.8651 92.2901 61.5C92.2901 77.1349 95.4584 91.8321 101.202 102.84C101.325 103.064 101.427 103.268 101.55 103.492C101.938 103.125 102.306 102.758 102.694 102.391C104.309 100.781 105.822 99.0686 107.232 97.3155C105.25 87.001 104.166 74.5665 104.166 61.5C104.146 48.4539 105.229 36.0194 107.212 25.6845ZM105.74 115.621C103.941 113.786 102.224 111.646 100.63 109.179C99.8736 109.791 99.1173 110.382 98.3406 110.953C100.691 112.787 103.144 114.357 105.74 115.621ZM61.6698 3.66921C46.1757 3.66921 31.6219 9.68264 20.6656 20.6087C9.70937 31.5348 3.67934 46.0486 3.67934 61.5C3.67934 76.9514 9.70937 91.4652 20.6656 102.391C31.6219 113.317 46.1757 119.331 61.6698 119.331C70.9499 119.331 79.8826 117.17 87.9158 113.093C84.3387 110.769 80.9864 108.058 77.8998 104.98C66.2486 93.361 59.8302 77.9095 59.8302 61.5C59.8302 45.0701 66.2486 29.6187 77.8998 18.0199C80.9864 14.9418 84.3387 12.2307 87.9158 9.90687C79.8826 5.82997 70.9499 3.66921 61.6698 3.66921ZM91.5951 11.9249C87.6092 14.3303 83.889 17.2249 80.4958 20.6087C69.5395 31.5348 63.5095 46.0486 63.5095 61.5C63.5095 76.9514 69.5395 91.4652 80.4958 102.391C83.8685 105.755 87.5887 108.67 91.5951 111.075C91.8404 110.932 92.1062 110.769 92.3514 110.606C90.5322 108.853 88.7947 106.917 87.139 104.817C78.1042 93.2183 73.1167 77.8484 73.1167 61.5C73.1167 45.1516 78.1042 29.7817 87.139 18.183C88.7743 16.0834 90.5118 14.1468 92.3514 12.3938C92.0857 12.2307 91.8404 12.088 91.5951 11.9249ZM76.796 61.5C76.796 80.8449 84.1751 97.9882 95.4789 108.507C96.5827 107.712 97.666 106.876 98.7085 105.999C98.4428 105.51 98.1771 105.041 97.9113 104.532C91.9222 93.0144 88.6108 77.7261 88.6108 61.5C88.6108 45.2739 91.9222 29.9856 97.9113 18.4684L98.7085 17.0007C97.6456 16.1241 96.5827 15.2884 95.4789 14.4934C84.1751 25.0118 76.796 42.1551 76.796 61.5ZM98.3406 12.0472C99.1173 12.618 99.8736 13.2092 100.63 13.8207C102.224 11.3542 103.941 9.21379 105.74 7.37918C103.144 8.64302 100.691 10.2126 98.3406 12.0472ZM103.43 16.2464C104.064 16.8172 104.677 17.4084 105.27 17.9995C106.272 18.9983 107.253 20.038 108.173 21.0979C108.357 20.3233 108.541 19.5691 108.725 18.8353C110.176 13.2907 111.852 8.88764 113.753 5.74843C110.053 7.80726 106.537 11.3542 103.43 16.2464ZM119.66 4.38266C117.432 6.01342 114.693 10.6203 112.302 19.773C111.893 21.3629 111.504 23.0345 111.137 24.7672C114.755 29.5983 117.616 34.8779 119.64 40.4836V4.38266H119.66ZM110.217 29.8225C108.663 39.1994 107.825 50.0847 107.825 61.5C107.825 72.9153 108.663 83.8006 110.217 93.1775C116.369 83.8414 119.66 72.9357 119.66 61.5C119.66 50.0643 116.369 39.1586 110.217 29.8225ZM119.66 82.5164C117.616 88.1221 114.775 93.4017 111.157 98.2328C111.525 99.9655 111.913 101.637 112.322 103.227C114.693 112.38 117.432 116.987 119.681 118.617V82.5164H119.66ZM151.425 111.075C155.105 108.853 158.539 106.224 161.707 103.186C160.562 102.656 159.438 102.065 158.334 101.433C157.558 102.595 156.74 103.737 155.881 104.837C154.246 106.937 152.509 108.874 150.669 110.627C150.914 110.769 151.16 110.912 151.425 111.075ZM138.261 44.907C140.162 40.0148 142.901 35.469 146.397 31.4329C145.13 27.3764 143.596 23.5849 141.818 20.1603C141.695 19.936 141.593 19.7322 141.471 19.508C141.082 19.8749 140.714 20.2418 140.326 20.6087C138.711 22.2191 137.199 23.9314 135.788 25.6845C136.912 31.5144 137.75 37.9967 138.261 44.907ZM135.788 97.3155C137.199 99.089 138.711 100.781 140.326 102.391C140.694 102.758 141.082 103.125 141.471 103.492C141.593 103.268 141.695 103.064 141.818 102.84C143.596 99.4151 145.13 95.6236 146.397 91.5671C142.881 87.531 140.142 82.9649 138.261 78.093C137.75 84.9829 136.912 91.4856 135.788 97.3155ZM138.854 61.5C138.854 71.1826 142.125 80.0907 147.623 87.2456C149.627 79.3364 150.689 70.5915 150.689 61.5C150.689 52.4289 149.627 43.6636 147.623 35.7544C142.125 42.9093 138.854 51.8174 138.854 61.5ZM153.653 74.5665C153.02 80.1926 151.957 85.5741 150.526 90.6294C152.55 92.7494 154.778 94.6656 157.19 96.3371C159.172 92.9533 160.869 89.2841 162.238 85.3906C158.6 82.4756 155.657 78.786 153.653 74.5665ZM163.444 81.5787C165.243 75.3207 166.224 68.553 166.224 61.5C166.224 54.447 165.243 47.6793 163.444 41.4213C157.885 46.3543 154.389 53.5297 154.389 61.5C154.389 69.4703 157.885 76.6457 163.444 81.5787ZM153.653 48.4335C155.657 44.214 158.62 40.5244 162.238 37.6298C160.869 33.7363 159.172 30.0467 157.19 26.6833C154.778 28.3548 152.55 30.271 150.526 32.391C151.957 37.4055 152.999 42.8074 153.653 48.4335ZM165.366 35.4282C167.349 34.2256 169.454 33.2267 171.703 32.4929C169.658 28.9867 167.246 25.6845 164.446 22.6268C163.015 23.2383 161.646 23.9314 160.297 24.706C162.279 28.0694 163.976 31.6571 165.366 35.4282ZM181.33 46.4155C189.69 46.4155 196.456 53.1831 196.456 61.5C196.456 69.8169 189.67 76.5845 181.33 76.5845H181.31C180.308 80.5595 178.918 84.3918 177.16 88.061C178.53 88.2648 179.92 88.3871 181.33 88.3871C196.191 88.3871 208.292 76.3195 208.292 61.5C208.292 46.6805 196.191 34.6129 181.33 34.6129C179.92 34.6129 178.509 34.7148 177.16 34.939C178.939 38.6082 180.329 42.4609 181.33 46.4155ZM178.448 50.4516C173.542 51.7358 169.904 56.2 169.904 61.4796C169.904 66.7592 173.542 71.2438 178.448 72.5076C179.143 68.8996 179.49 65.21 179.49 61.4796C179.49 57.7493 179.143 54.0597 178.448 50.4516ZM182.127 72.8745C188.076 72.4669 192.777 67.5134 192.777 61.5C192.777 55.4866 188.076 50.5331 182.127 50.1255C182.822 53.8354 183.17 57.6473 183.17 61.5C183.17 65.3527 182.822 69.1646 182.127 72.8745ZM177.63 76.1157C174.299 75.2799 171.396 73.323 169.352 70.6934C168.82 75.2799 167.88 79.7237 166.572 83.9841C168.677 85.3702 171.008 86.471 173.481 87.2252C175.239 83.6783 176.629 79.948 177.63 76.1157ZM169.372 52.3066C171.416 49.677 174.319 47.7201 177.651 46.8843C176.649 43.052 175.259 39.3217 173.501 35.7952C171.028 36.5494 168.718 37.6502 166.592 39.0363C167.901 43.2763 168.82 47.7201 169.372 52.3066ZM175.382 31.5348C177.303 31.1475 179.307 30.964 181.33 30.964C198.214 30.964 211.971 44.6624 211.971 61.5204C211.971 78.358 198.235 92.0767 181.33 92.0767C179.286 92.0767 177.303 91.8729 175.382 91.506C173.338 95.1344 170.905 98.5998 168.125 101.8C172.275 103.166 176.731 103.9 181.33 103.9C204.755 103.9 223.806 84.9014 223.806 61.5408C223.806 38.1801 204.755 19.1818 181.33 19.1818C176.731 19.1818 172.275 19.9156 168.125 21.2814C170.926 24.441 173.338 27.886 175.382 31.5348ZM171.703 90.5071C169.475 89.7733 167.349 88.7744 165.366 87.5718C163.976 91.3429 162.279 94.9306 160.297 98.294C161.625 99.0482 163.015 99.7413 164.446 100.373C167.246 97.3155 169.658 93.9929 171.703 90.5071ZM155.207 99.4559C153.122 98.0086 151.139 96.3982 149.279 94.6044C148.073 98.1513 146.683 101.474 145.089 104.532L144.291 105.999C145.354 106.876 146.417 107.712 147.521 108.507C150.362 105.877 152.938 102.84 155.207 99.4559ZM144.659 110.953C143.883 110.382 143.126 109.791 142.37 109.179C140.776 111.646 139.059 113.786 137.26 115.621C139.856 114.357 142.329 112.787 144.659 110.953ZM139.57 106.754C138.936 106.183 138.323 105.592 137.73 105C136.728 104.002 135.747 102.962 134.827 101.902C134.643 102.677 134.459 103.431 134.275 104.165C132.824 109.709 131.148 114.112 129.247 117.252C132.967 115.193 136.483 111.625 139.57 106.754ZM123.34 118.617C125.568 116.987 128.307 112.38 130.698 103.227C131.107 101.637 131.496 99.9655 131.863 98.2328C128.245 93.4017 125.384 88.1221 123.34 82.5164V118.617ZM132.804 93.1775C134.357 83.8006 135.195 72.9153 135.195 61.5C135.195 50.0847 134.357 39.1994 132.804 29.8225C126.651 39.1586 123.36 50.0643 123.36 61.5C123.36 72.9357 126.651 83.8414 132.804 93.1775ZM123.34 4.38266V40.4836C125.384 34.8779 128.225 29.5983 131.863 24.7672C131.496 23.0345 131.107 21.3629 130.698 19.773C128.307 10.6203 125.588 6.01342 123.34 4.38266ZM129.227 5.74843C131.128 8.88764 132.824 13.2907 134.255 18.8353C134.439 19.5691 134.643 20.3437 134.807 21.0979C135.747 20.038 136.708 18.9983 137.71 17.9995C138.323 17.388 138.936 16.8172 139.549 16.2464C136.483 11.3542 132.967 7.80726 129.227 5.74843ZM137.28 7.37918C139.079 9.21379 140.796 11.3542 142.39 13.8207C143.147 13.2092 143.903 12.618 144.68 12.0472C142.329 10.2126 139.856 8.64302 137.28 7.37918ZM147.521 14.4934C146.417 15.2884 145.334 16.1241 144.291 17.0007C144.557 17.4899 144.823 17.9587 145.089 18.4684C146.683 21.526 148.073 24.8691 149.279 28.3956C151.139 26.6018 153.122 24.9914 155.207 23.5441C152.938 20.1603 150.362 17.123 147.521 14.4934ZM151.425 11.9249C151.18 12.0676 150.914 12.2307 150.669 12.3938C152.488 14.1468 154.226 16.0834 155.881 18.183C156.74 19.2837 157.558 20.4049 158.334 21.5872C159.438 20.9553 160.562 20.3641 161.707 19.8341C158.539 16.7764 155.084 14.1468 151.425 11.9249ZM222.355 20.6087C211.399 9.68264 196.845 3.66921 181.351 3.66921C172.07 3.66921 163.138 5.82997 155.105 9.90687C158.682 12.2307 162.034 14.9418 165.121 18.0199C165.202 18.1014 165.305 18.2034 165.386 18.3053C170.435 16.4503 175.811 15.4922 181.33 15.4922C193.656 15.4922 205.246 20.2826 213.974 28.9664C222.682 37.6502 227.485 49.2082 227.485 61.5204C227.485 73.8122 222.682 85.3702 213.974 94.0744C205.266 102.758 193.676 107.549 181.33 107.549C175.791 107.549 170.415 106.59 165.386 104.735C165.305 104.817 165.202 104.919 165.121 105.021C162.034 108.099 158.682 110.81 155.105 113.134C163.138 117.211 172.07 119.372 181.351 119.372C196.845 119.372 211.399 113.358 222.355 102.432C233.311 91.506 239.341 76.9922 239.341 61.5408C239.341 46.0893 233.291 31.5348 222.355 20.6087Z" fill="#CCCCB7"/>
</g>
<defs>
<clipPath id="clip0_721_3455">
<rect width="243" height="123" fill="white" transform="matrix(1 0 0 -1 0 123)"/>
</clipPath>
</defs>
</svg>
