<svg width="149" height="160" viewBox="0 0 149 160" fill="none" xmlns="http://www.w3.org/2000/svg">
<rect width="144" height="160" rx="35" fill="#ccccb7"/>
<g clip-path="url(#clip0_357_1218)">
<path d="M14.3785 69.1857H14.937C15.4614 66.3703 16.8434 63.7857 18.8894 61.7825C20.9355 59.7792 23.5514 58.457 26.3782 57.9925V57.4339C23.4545 56.9296 20.7702 55.5076 18.7099 53.3704C16.6525 51.2332 15.3303 48.4976 14.937 45.5568H14.3785C13.914 48.4121 12.5661 51.0508 10.5258 53.1025C8.4855 55.1543 5.85531 56.5164 3 56.998V57.5565C5.88096 58.0495 8.5311 59.4372 10.5743 61.526C12.6174 63.6148 13.9482 66.2934 14.3785 69.1829V69.1857Z" fill="#092F1B"/>
<path d="M14.3785 114.617H14.937C15.4614 111.802 16.8434 109.217 18.8894 107.214C20.9355 105.211 23.5514 103.888 26.3782 103.424V102.865C23.4545 102.361 20.7702 100.939 18.7099 98.8017C16.6525 96.6645 15.3303 93.9289 14.937 90.9881H14.3785C13.914 93.8434 12.5661 96.4822 10.5258 98.5339C8.4855 100.586 5.85531 101.948 3 102.429V102.988C5.88096 103.481 8.5311 104.869 10.5743 106.957C12.6174 109.046 13.9482 111.725 14.3785 114.614V114.617Z" fill="#092F1B"/>
<path d="M74.8701 114.571H75.4286C75.9529 111.756 77.335 109.171 79.381 107.168C81.427 105.165 84.043 103.843 86.8698 103.378V102.82C83.9461 102.315 81.2618 100.893 79.2015 98.7561C77.1441 96.6189 75.8218 93.8833 75.4286 90.9425H74.8701C74.4056 93.7978 73.0577 96.4366 71.0174 98.4883C68.9771 100.54 66.3469 101.902 63.4916 102.384V102.942C66.3725 103.435 69.0227 104.823 71.0658 106.912C73.109 109 74.4398 111.679 74.8701 114.569V114.571Z" fill="#092F1B"/>
<path d="M74.8701 160H75.4286C75.9529 157.185 77.335 154.6 79.381 152.597C81.427 150.593 84.043 149.271 86.8698 148.807V148.248C83.9461 147.744 81.2618 146.322 79.2015 144.185C77.1441 142.047 75.8218 139.312 75.4286 136.371H74.8701C74.4056 139.226 73.0577 141.865 71.0174 143.917C68.9771 145.969 66.3469 147.331 63.4916 147.812V148.371C66.3725 148.864 69.0227 150.251 71.0658 152.34C73.109 154.429 74.4398 157.108 74.8701 159.997V160Z" fill="#092F1B"/>
<path d="M74.8701 23.629H75.4286C75.9529 20.8136 77.335 18.229 79.381 16.2257C81.427 14.2224 84.043 12.9002 86.8698 12.4357V11.8772C83.9461 11.3728 81.2618 9.95084 79.2015 7.81364C77.1441 5.67643 75.8218 2.9408 75.4286 0H74.8701C74.4056 2.85531 73.0577 5.49405 71.0174 7.54577C68.9771 9.59749 66.3469 10.9596 63.4916 11.4412V11.9997C66.3725 12.4927 69.0227 13.8805 71.0658 15.9692C73.109 18.058 74.4398 20.7366 74.8701 23.6261V23.629Z" fill="#092F1B"/>
<path d="M74.8701 69.0575H75.4286C75.9529 66.2421 77.335 63.6575 79.381 61.6542C81.427 59.6509 84.043 58.3287 86.8698 57.8642V57.3057C83.9461 56.8013 81.2618 55.3794 79.2015 53.2422C77.1441 51.105 75.8218 48.3693 75.4286 45.4285H74.8701C74.4056 48.2838 73.0577 50.9226 71.0174 52.9743C68.9771 55.026 66.3469 56.3881 63.4916 56.8697V57.4282C66.3725 57.9212 69.0227 59.309 71.0658 61.3978C73.109 63.4865 74.4398 66.1652 74.8701 69.0547V69.0575Z" fill="#092F1B"/>
<path d="M134.729 91.8173H135.287C135.812 89.0019 137.194 86.4173 139.24 84.414C141.286 82.4108 143.902 81.0885 146.729 80.6241V80.0655C143.805 79.5612 141.121 78.1392 139.06 76.002C137.003 73.8648 135.681 71.1292 135.287 68.1884H134.729C134.264 71.0437 132.917 73.6824 130.876 75.7341C128.836 77.7858 126.206 79.148 123.35 79.6295V80.1881C126.231 80.6811 128.882 82.0688 130.925 84.1576C132.968 86.2463 134.299 88.925 134.729 91.8145V91.8173Z" fill="#092F1B"/>
<path d="M26.3953 103.136C31.2197 94.4475 37.1639 86.4657 43.3362 78.7148C49.594 71.0322 56.131 63.5292 63.6026 56.9751C58.7868 65.6664 52.8397 73.651 46.6617 81.3963C40.3983 89.0731 33.8584 96.5761 26.3953 103.136Z" fill="#092F1B"/>
<path d="M63.5343 102.714C53.1816 105.743 37.2381 106.014 26.7743 103.284C37.1469 100.235 53.0762 100.004 63.5343 102.714Z" fill="#092F1B"/>
<path d="M63.2493 102.572C55.9116 96.2057 49.4943 88.8936 43.3505 81.4048C37.2922 73.8476 31.4705 66.0511 26.7743 57.5479C34.1177 63.9053 40.5379 71.2203 46.6731 78.7148C52.7229 86.2776 58.5475 94.0713 63.2493 102.572Z" fill="#092F1B"/>
<path d="M63.4031 148.317C56.0654 141.951 49.6481 134.638 43.5043 127.15C37.446 119.593 31.6243 111.796 26.9281 103.293C34.2716 109.65 40.6917 116.965 46.8269 124.46C52.8767 132.023 58.7013 139.816 63.4031 148.317Z" fill="#092F1B"/>
<path d="M26.3953 57.602C31.2197 48.9136 37.1639 40.9318 43.3362 33.1808C49.594 25.4983 56.131 17.9953 63.6026 11.4412C58.7868 20.1325 52.8397 28.1171 46.6617 35.8623C40.3983 43.5392 33.8584 51.0422 26.3953 57.602Z" fill="#092F1B"/>
<path d="M63.5343 57.1803C53.1816 60.2094 37.2381 60.4801 26.7743 57.7502C37.1469 54.7011 53.0762 54.4703 63.5343 57.1803Z" fill="#092F1B"/>
<path d="M86.8697 57.5792C90.3462 58.6621 93.6176 60.1439 96.8633 61.7311C104.851 65.7462 112.445 70.5107 119.338 76.2157C120.715 77.3812 122.074 78.5751 123.35 79.9031C121.586 79.3702 119.905 78.7034 118.241 78.0081C110.023 74.466 102.323 69.8724 95.1136 64.5864C92.2241 62.4178 89.4144 60.1809 86.8668 57.5764L86.8697 57.5792Z" fill="#092F1B"/>
<path d="M123 80.0769C120.518 82.7413 117.765 85.0495 114.93 87.2864C107.851 92.7491 100.269 97.5279 92.1387 101.272C90.4916 102.008 88.8274 102.717 87.0778 103.293C88.3202 101.933 89.651 100.705 90.9988 99.5084C97.7524 93.6354 105.224 88.6827 113.112 84.4739C116.318 82.8068 119.552 81.2452 123 80.0769Z" fill="#092F1B"/>
<path d="M86.8698 12.4357C94.3528 22.643 100.727 33.5883 106.811 44.6591C112.798 55.784 118.515 67.0884 123 78.9228C115.511 68.7212 109.134 57.773 103.058 46.6994C97.0799 35.5717 91.3636 24.2673 86.8698 12.4357Z" fill="#092F1B"/>
<path d="M86.8698 148.807C91.4149 136.679 97.1853 125.069 103.221 113.637C109.353 102.255 115.788 90.9995 123.342 80.4787C118.805 92.6095 113.035 104.219 106.991 115.649C100.85 127.027 94.4184 138.28 86.8698 148.807Z" fill="#092F1B"/>
</g>
<defs>
<clipPath id="clip0_357_1218">
<rect width="143.732" height="160" fill="white" transform="translate(3)"/>
</clipPath>
</defs>
</svg>
