<svg width="165" height="156" viewBox="0 0 165 156" fill="none" xmlns="http://www.w3.org/2000/svg">
<path d="M31.659 118.203C18.7527 118.85 12.6223 114.325 12.6223 114.325C12.6223 114.325 8.75039 111.74 4.55586 103.338C0.361323 94.9355 -2.21993 75.2226 2.61992 58.7414C7.45976 42.2601 14.8809 39.998 19.398 39.0285C26.0899 37.5937 60.6981 38.059 78.7668 38.3822C96.8356 38.7053 101.675 33.5347 101.998 24.8094C102.321 16.084 88.4723 17.9519 88.4723 17.9519C88.4723 17.9519 83.8874 17.3282 77.9376 20.3433C71.991 23.3551 66.5059 28.7099 62.15 27.8115C57.7942 26.9132 56.8714 25.7078 56.8714 25.7078C56.8714 25.7078 51.6411 21.9526 49.7665 21.3257C49.7665 21.3257 42.2066 19.1863 40.4804 17.396C38.7574 15.6025 38.4348 15.2793 38.3347 13.8962C38.3347 13.8962 38.1121 12.3709 40.4062 10.5224C42.6164 8.74175 48.3629 6.75431 48.3629 6.75431C48.3629 6.75431 51.2313 5.46489 52.4961 4.15285C53.7609 2.84081 55.8518 1.27671 58.1942 0.604533C60.5367 -0.0676435 63.0502 -0.361721 65.8251 0.75642C68.5999 1.87456 71.649 3.85231 75.1273 4.31443C78.6055 4.77979 85.3135 5.36148 89.7016 4.26273C94.0898 3.16398 105.425 1.75822 112.02 3.91694C118.615 6.07243 121.712 12.5906 121.777 25.4912C121.777 25.4912 124.584 54.2268 80.7028 53.9036C36.8215 53.5805 28.4324 52.9342 24.8832 53.9036C21.334 54.8731 14.2355 58.4279 14.2355 74.2629C14.2355 90.0978 18.1074 98.1768 19.0754 99.1463C20.0434 100.116 20.366 92.2468 20.366 85.8967C20.366 79.5465 20.0434 66.1838 22.302 63.5985C24.5605 61.0132 25.5285 58.1048 36.1762 58.4279C46.8238 58.7511 76.918 59.2197 81.3997 59.1453C85.5426 59.0742 102.643 58.7511 111.678 52.2878C118.402 47.476 122.648 40.654 122.648 37.7455C122.648 34.8371 122.971 61.3364 117.808 69.7386C114.327 75.4068 114.259 76.2277 83.1227 74.7605C51.9863 73.2934 41.984 76.2018 39.0801 88.8051C36.1762 101.408 37.2958 118.278 37.2958 118.278L31.659 118.213V118.203Z" fill="#ccccb7"/>
<path d="M133.341 37.797C146.247 37.1507 152.378 41.675 152.378 41.675C152.378 41.675 156.25 44.2603 160.444 52.6625C164.639 61.0647 167.22 80.7776 162.38 97.2589C157.54 113.74 150.119 116.002 145.602 116.972C138.91 118.407 104.302 117.941 86.2331 117.618C68.1644 117.295 63.3245 122.465 63.0019 131.191C62.6792 139.916 76.5276 138.048 76.5276 138.048C76.5276 138.048 81.1126 138.672 87.0624 135.657C93.0089 132.645 98.4941 127.29 102.85 128.189C107.206 129.087 108.129 130.292 108.129 130.292C108.129 130.292 113.359 134.048 115.233 134.675C115.233 134.675 122.793 136.814 124.52 138.604C126.243 140.398 126.565 140.721 126.665 142.104C126.665 142.104 126.888 143.629 124.594 145.478C122.384 147.258 116.637 149.246 116.637 149.246C116.637 149.246 113.769 150.535 112.504 151.847C111.239 153.159 109.148 154.724 106.806 155.396C104.463 156.068 101.95 156.362 99.1749 155.244C96.4 154.126 93.3509 152.148 89.8727 151.686C86.3945 151.22 79.6864 150.639 75.2983 151.738C70.9102 152.836 59.5753 154.242 52.9802 152.083C46.3851 149.928 43.2876 143.41 43.2231 130.509C43.2231 130.509 40.416 101.773 84.2972 102.097C128.178 102.42 136.568 103.066 140.117 102.097C143.666 101.127 150.764 97.5723 150.764 81.7374C150.764 65.9024 146.893 57.8234 145.925 56.8539C144.957 55.8844 144.634 63.7534 144.634 70.1035C144.634 76.8899 144.957 89.8164 142.698 92.4017C140.439 94.987 139.471 97.8955 128.824 97.5723C118.176 97.2492 88.082 96.7806 83.6003 96.8549C79.4574 96.926 62.3566 97.2492 53.3222 103.712C46.598 108.524 42.3519 115.346 42.3519 118.255C42.3519 121.163 42.0292 94.6639 47.1917 86.2616C50.6732 80.5934 50.7409 79.7726 81.8773 81.2397C113.014 82.7069 123.016 79.7984 125.92 67.1951C128.824 54.5918 127.704 37.7227 127.704 37.7227L133.341 37.7873V37.797Z" fill="#ccccb7"/>
<path d="M116.124 138.507L120.173 140.705C120.993 141.151 121.012 142.317 120.212 142.792L116.427 145.032C116.066 145.245 115.617 145.255 115.246 145.054L111.2 142.857C110.381 142.414 110.361 141.244 111.162 140.769L114.946 138.53C115.308 138.317 115.756 138.307 116.127 138.507H116.124Z" fill="#092F1B"/>
<path d="M63.7989 144.634L64.4345 148.196C64.5636 148.916 63.857 149.501 63.1762 149.243L59.9496 148.015C59.6398 147.898 59.4172 147.627 59.3591 147.3L58.7235 143.739C58.5944 143.019 59.3011 142.434 59.9819 142.692L63.2084 143.92C63.5182 144.037 63.7408 144.308 63.7989 144.634Z" fill="#092F1B"/>
<path d="M146.654 103.893L150.432 103.496C151.197 103.415 151.755 104.2 151.432 104.898L149.9 108.191C149.754 108.508 149.451 108.721 149.106 108.757L145.328 109.154C144.563 109.235 144.005 108.45 144.327 107.752L145.86 104.459C146.005 104.142 146.309 103.929 146.654 103.893Z" fill="#092F1B"/>
<path d="M63.431 108.136L67.0125 107.367C67.7352 107.212 68.3547 107.907 68.1127 108.608L66.9834 111.924C66.8737 112.241 66.6091 112.48 66.2833 112.548L62.7018 113.317C61.979 113.472 61.3595 112.777 61.6015 112.076L62.7308 108.76C62.8405 108.443 63.1051 108.204 63.431 108.136Z" fill="#092F1B"/>
<path d="M83.4615 110.415L86.0621 111.976C86.5881 112.292 86.5687 113.061 86.0299 113.349L83.4777 114.716C83.2324 114.845 82.9388 114.839 82.7001 114.697L80.0995 113.136C79.5735 112.819 79.5929 112.05 80.1317 111.762L82.6839 110.395C82.9292 110.266 83.2228 110.273 83.4615 110.415Z" fill="#092F1B"/>
<path d="M133.315 45.5884L132.454 41.8818C132.279 41.132 132.989 40.4792 133.718 40.7151L137.171 41.8268C137.5 41.9335 137.752 42.2049 137.832 42.5442L138.694 46.2509C138.868 47.0006 138.158 47.6534 137.429 47.4175L133.977 46.3058C133.647 46.1992 133.396 45.9277 133.318 45.5884H133.315Z" fill="#092F1B"/>
<path d="M127.03 84.2904L129.876 85.7801C130.45 86.0807 130.479 86.895 129.924 87.2344L127.311 88.834C127.059 88.9859 126.749 88.9988 126.488 88.8631L123.642 87.3733C123.068 87.0728 123.039 86.2584 123.594 85.9191L126.207 84.3194C126.459 84.1676 126.768 84.1546 127.03 84.2904Z" fill="#092F1B"/>
<path d="M48.5724 16.9048L44.5231 14.7073C43.7035 14.2613 43.6842 13.0947 44.4844 12.6197L48.2691 10.3802C48.6305 10.1669 49.079 10.1572 49.45 10.3575L53.4961 12.555C54.3157 12.9978 54.3351 14.1676 53.5349 14.6427L49.7501 16.8822C49.3887 17.0955 48.9402 17.1052 48.5692 16.9048H48.5724Z" fill="#092F1B"/>
<path d="M100.894 10.7774L100.259 7.21618C100.13 6.49553 100.836 5.91061 101.517 6.16914L104.744 7.39715C105.053 7.51349 105.276 7.78495 105.334 8.11134L105.97 11.6726C106.099 12.3932 105.392 12.9782 104.711 12.7196L101.485 11.4916C101.175 11.3753 100.952 11.1038 100.894 10.7774Z" fill="#092F1B"/>
<path d="M18.0429 51.5185L14.2645 51.916C13.4999 51.9968 12.9417 51.2115 13.2643 50.5134L14.7969 47.2204C14.9421 46.9037 15.2454 46.6904 15.5907 46.6549L19.369 46.2574C20.1337 46.1766 20.6919 46.9619 20.3692 47.6599L18.8366 50.9529C18.6914 51.2696 18.3881 51.4829 18.0429 51.5185Z" fill="#092F1B"/>
<path d="M101.262 47.2721L97.6808 48.0412C96.958 48.1963 96.3385 47.5015 96.5805 46.8003L97.7098 43.4846C97.8195 43.1679 98.0841 42.9288 98.41 42.8609L101.991 42.0918C102.714 41.9367 103.334 42.6315 103.092 43.3327L101.962 46.6484C101.853 46.9651 101.588 47.2042 101.262 47.2721Z" fill="#092F1B"/>
<path d="M81.235 44.9938L78.6344 43.4329C78.1084 43.1162 78.1278 42.3471 78.6666 42.0595L81.2188 40.6925C81.4641 40.5632 81.7577 40.5697 81.9964 40.7119L84.5971 42.2728C85.123 42.5895 85.1036 43.3586 84.5648 43.6462L82.0126 45.0132C81.7674 45.1424 81.4737 45.136 81.235 44.9938Z" fill="#092F1B"/>
<path d="M31.3781 109.82L32.2396 113.527C32.4138 114.277 31.704 114.929 30.9748 114.693L27.5224 113.582C27.1933 113.475 26.9416 113.204 26.8609 112.864L25.9994 109.158C25.8252 108.408 26.535 107.755 27.2642 107.991L30.7167 109.103C31.0458 109.209 31.2974 109.481 31.3749 109.82H31.3781Z" fill="#092F1B"/>
<path d="M37.6636 71.1182L34.8178 69.6285C34.2435 69.3279 34.2144 68.5135 34.7694 68.1742L37.3829 66.5746C37.6346 66.4227 37.9444 66.4098 38.2057 66.5455L41.0515 68.0353C41.6259 68.3358 41.6549 69.1502 41.0999 69.4895L38.4864 71.0891C38.2347 71.241 37.925 71.254 37.6636 71.1182Z" fill="#092F1B"/>
</svg>
