<svg width="181" height="162" viewBox="0 0 181 162" fill="none" xmlns="http://www.w3.org/2000/svg">
<path d="M133.128 156.25C136.763 154.312 138.668 150.326 139.84 146.541C141.938 139.715 141.474 132.394 140.501 125.408C140.273 124.246 139.961 122 139.73 120.904C139.426 119.502 139.093 117.828 138.749 116.447C138.434 115.335 137.92 113.081 137.577 112.042C134.222 100.388 129.159 89.201 123.486 78.4982C119.439 70.8478 114.969 63.3857 110.584 55.9236C104.315 45.4353 97.5791 35.1065 89.0309 26.3079C80.5456 17.7185 70.2794 10.1491 58.4393 7.18313C53.8807 6.10553 48.5167 5.9826 44.8787 9.23371C41.3115 12.5005 40.4905 17.6296 40.0498 22.2669C39.4754 29.2216 40.4878 36.2129 41.9646 43.0421C42.4524 45.6001 43.2603 48.6027 43.9082 51.1293C44.299 52.458 45.0282 54.8904 45.4164 56.206C45.857 57.485 46.6728 59.9332 47.1161 61.2252C48.0472 63.6891 49.0938 66.5792 50.1377 68.9908C57.162 85.806 66.7698 101.586 77.2197 116.491C87.9082 131.722 102.384 151.927 121.251 156.815C125.131 157.738 129.477 158.11 133.128 156.25ZM133.348 156.666C129.574 158.62 125.131 158.303 121.099 157.49C114.98 156.206 109.304 153.331 104.126 149.897C90.2033 140.716 79.4492 127.553 69.8518 114.158C59.0033 98.9935 49.642 82.5994 43.4728 64.955C42.5679 62.533 41.8465 59.9986 41.0544 57.5347L40.6426 56.0282C40.1862 54.3621 39.4308 51.6733 39.0793 49.9811C37.9042 44.9331 36.8918 39.7334 36.417 34.5651C35.8347 28.2329 36.0393 21.7595 37.8465 15.6104C39.9187 8.51705 44.9075 3.96603 52.598 4.24066C61.3797 4.55191 71.3154 10.1151 78.3108 15.1919C89.2355 23.0568 98.1981 33.3489 106.245 44.0412C112.375 52.3377 118.093 60.9297 123.402 69.7597C127.355 76.3875 130.982 83.4128 133.928 90.548C137.495 99.1635 140.137 108.26 141.474 117.493C141.558 118.226 141.802 119.834 141.891 120.577C142.062 121.95 142.188 123.901 142.327 125.217C142.757 132.399 142.794 139.851 140.451 146.74C139.127 150.606 137.117 154.67 133.354 156.671L133.348 156.666Z" fill="#ccccb7" stroke="#ccccb7" stroke-width="5"/>
<path d="M47.5779 156.972C51.1005 159.106 55.5123 158.711 59.376 157.791C66.3373 156.117 72.4199 151.992 77.9543 147.601C78.8409 146.813 80.6219 145.401 81.4481 144.645C82.5025 143.669 83.7799 142.532 84.795 141.535C85.595 140.698 87.2789 139.111 88.0003 138.287C96.3517 129.475 103.431 119.437 109.787 109.118C114.332 101.75 118.497 94.1156 122.707 86.5514C128.569 75.833 134.057 64.7928 137.301 52.9785C140.396 41.3237 141.705 28.6593 138.238 16.9861C136.848 12.524 134.222 7.85792 129.564 6.39061C124.926 4.9913 120.082 6.89802 115.856 8.8806C109.561 11.9277 104.042 16.3558 98.8986 21.0977C96.9393 22.8188 94.7596 25.042 92.9078 26.8833C91.9583 27.8955 90.2324 29.7604 89.2934 30.7621C88.4121 31.79 86.715 33.7386 85.8258 34.7744C84.1734 36.8276 82.2114 39.1972 80.6612 41.321C69.7209 55.9105 60.9891 72.1869 53.4428 88.7433C46.7622 103.416 40.0238 118.702 39.5281 135.046C39.3628 142.296 41.0756 152.73 47.5832 156.969L47.5779 156.972ZM47.3313 157.372C43.7248 155.128 41.734 151.152 40.3858 147.276C38.3792 141.37 37.9726 135.036 38.3005 128.842C39.1399 112.22 45.0284 96.2891 51.7064 81.2314C59.2737 64.1991 68.6612 47.8206 80.753 33.5451C82.3845 31.5363 84.2022 29.627 85.9281 27.6915L87.0193 26.5694C88.2258 25.3297 90.1616 23.3131 91.4442 22.1492C95.2029 18.5685 99.1767 15.0559 103.397 12.0192C108.567 8.29733 114.259 5.177 120.488 3.59722C127.665 1.76635 134.135 3.73062 137.81 10.4708C142.012 18.1657 142.267 29.525 141.446 38.1144C140.218 51.4928 135.895 64.4267 130.762 76.7772C126.72 86.2611 122.217 95.5436 117.293 104.593C113.585 111.36 109.367 118.048 104.706 124.207C99.0822 131.654 92.5773 138.553 85.2881 144.399C84.698 144.844 83.4337 145.872 82.8383 146.327C81.7393 147.174 80.1183 148.273 79.0534 149.063C73.073 153.085 66.6573 156.912 59.5202 158.408C55.5097 159.237 50.9773 159.585 47.334 157.37L47.3313 157.372Z" fill="#ccccb7" stroke="#ccccb7" stroke-width="5"/>
<path d="M2.94295 82.5654C2.76721 78.3125 5.26689 74.5305 7.93443 71.4311C12.7056 65.928 19.1659 62.1825 25.5948 58.9157C26.6859 58.39 28.7869 57.4144 29.8282 56.941C30.5443 56.6272 31.9895 56.0491 32.7056 55.7379C40.8814 52.4005 49.5581 50.1485 58.2794 48.7989C66.4499 47.5617 74.8696 47.0491 83.1293 47.0962C93.4532 47.1851 103.78 47.7527 114.059 48.8198C127.381 50.3237 140.821 52.8163 153.154 58.2252C156.011 59.4232 158.809 60.8669 161.487 62.4284C165.083 64.5548 168.543 66.9297 171.567 69.8487C178.972 76.9315 180.716 85.3091 173.288 93.2263C168.887 97.8976 163.392 101.35 157.621 104.057C152.913 106.265 147.908 108.035 142.943 109.579C141.291 110.136 138.636 110.837 136.921 111.297L135.41 111.705C132.874 112.267 130.324 112.934 127.769 113.384C109.388 117.017 90.4709 117.273 71.8611 115.628C55.4178 114.161 38.5863 111.585 23.5961 104.264C18.004 101.552 12.6426 98.1278 8.4328 93.5166C5.68919 90.4617 3.1659 86.7999 2.94295 82.5654ZM3.41508 82.5445C3.65902 86.6273 6.1823 90.1766 8.94165 93.0432C22.72 106.785 47.5384 109.001 66.1116 110.476C84.2913 111.909 102.801 112.176 120.902 109.699C123.52 109.377 126.547 108.812 129.149 108.362C130.479 108.083 133.023 107.559 134.35 107.28C135.709 106.95 138.148 106.335 139.504 106.003C142.02 105.279 145.015 104.452 147.483 103.579C154.135 101.387 160.693 98.7189 166.416 94.7015C170.206 91.9761 174.222 88.67 175.24 83.949C176.207 79.173 173.383 74.6272 170.143 71.2506C161.579 62.5723 149.836 57.5818 138.112 54.6367C126.172 51.744 113.831 51.1868 101.587 51.1084C92.9129 51.1188 84.1968 51.0535 75.5306 51.451C63.402 51.9977 51.1633 53.3107 39.3889 56.329C38.2086 56.5932 36.1338 57.2392 34.985 57.5504C33.6 57.9454 32.0079 58.5286 30.6335 58.9628C29.4295 59.3813 27.5122 60.1529 26.3502 60.5792C19.819 63.2811 13.2512 66.5897 8.41181 71.8522C5.73115 74.7763 3.24984 78.4328 3.41508 82.5418V82.5445Z" fill="#ccccb7" stroke="#ccccb7" stroke-width="5"/>
<path d="M89.6762 92.4547H90.1903C90.6729 89.8706 91.9451 87.4983 93.8284 85.6596C95.7116 83.8208 98.1195 82.6072 100.721 82.1809V81.6683C98.0303 81.2053 95.5595 79.9002 93.6631 77.9385C91.7693 75.9769 90.5523 73.466 90.1903 70.7667H89.6762C89.2487 73.3875 88.008 75.8095 86.13 77.6927C84.2519 79.5758 81.831 80.8261 79.2028 81.2681V81.7807C81.8546 82.2332 84.2939 83.507 86.1746 85.4242C88.0552 87.3414 89.2802 89.8 89.6762 92.4521V92.4547Z" fill="#ccccb7"/>
</svg>
